External Loads File
version=1
nRows=86
nColumns=13
Range=5.000000e-03-10 seconds
endheader
time 	forceRightX 	forceRightY 	forceRightZ 	pointRightX 	pointRightY 	pointRightZ 	forceLeftX 	forceLeftY 	forceLeftZ 	pointLeftX 	pointLeftY 	pointLeftZ 		
0.005000 36.819063 174.779399 -0.000000 0.153830 0.177597 -0.164760 18.292665 129.622479 -0.000000 0.323793 0.469076 -0.415616
0.010000 37.458061 175.548637 -0.000000 0.153810 0.177634 -0.164762 17.221918 128.170756 -0.000000 0.323805 0.469078 -0.415610
0.015000 38.039177 176.254888 -0.000000 0.153779 0.177650 -0.164763 16.237421 126.842196 -0.000000 0.323827 0.469054 -0.415619
0.020000 38.482106 176.865890 -0.000000 0.153820 0.177667 -0.164654 15.384866 125.739194 -0.000000 0.323843 0.469044 -0.415617
0.025000 38.818813 177.346538 -0.000000 0.153803 0.177649 -0.164687 14.738928 124.922568 -0.000000 0.323810 0.469027 -0.415662
0.030000 39.084804 177.676584 -0.000000 0.153789 0.177663 -0.164686 14.326718 124.402386 -0.000000 0.323820 0.469024 -0.415673
0.035000 39.279298 177.861134 -0.000000 0.153767 0.177679 -0.164694 14.108796 124.139987 -0.000000 0.323843 0.469014 -0.415666
0.040000 39.393364 177.919987 -0.000000 0.153748 0.177688 -0.164702 14.029009 124.077947 -0.000000 0.323854 0.468998 -0.415681
0.045000 39.427066 177.878584 -0.000000 0.153735 0.177685 -0.164706 14.042160 124.155941 -0.000000 0.323860 0.468990 -0.415690
0.050000 39.407502 177.757970 -0.000000 0.153730 0.177717 -0.164710 14.131412 124.325101 -0.000000 0.323870 0.468982 -0.415681
0.055000 39.332821 177.580015 -0.000000 0.153712 0.177706 -0.164707 14.272379 124.565593 -0.000000 0.323884 0.468970 -0.415677
0.060000 39.214028 177.365330 -0.000000 0.153693 0.177710 -0.164700 14.454789 124.870256 -0.000000 0.323889 0.468981 -0.415684
0.065000 39.085363 177.142918 -0.000000 0.153675 0.177713 -0.164710 14.688974 125.237511 -0.000000 0.323910 0.468969 -0.415694
0.070000 38.941404 176.955364 -0.000000 0.153678 0.177736 -0.164716 14.956839 125.665001 -0.000000 0.323920 0.468959 -0.415692
0.075000 38.809623 176.820344 -0.000000 0.153659 0.177751 -0.164724 15.256583 126.129978 -0.000000 0.323935 0.468946 -0.415694
0.080000 38.668126 176.736658 -0.000000 0.153652 0.177754 -0.164723 15.552467 126.605798 -0.000000 0.323944 0.468943 -0.415696
0.085000 38.537765 176.675596 -0.000000 0.153631 0.177752 -0.164732 15.840822 127.057995 -0.000000 0.323963 0.468928 -0.415706
0.090000 38.395759 176.627975 -0.000000 0.153627 0.177774 -0.164733 16.087725 127.466684 -0.000000 0.323971 0.468919 -0.415709
0.095000 38.255943 176.605010 -0.000000 0.153612 0.177781 -0.164734 16.287074 127.835036 -0.000000 0.323980 0.468923 -0.415710
0.100000 38.128806 176.632986 -0.000000 0.153617 0.177784 -0.164742 16.422737 128.163595 -0.000000 0.323991 0.468902 -0.415712
0.105000 38.022881 176.720407 -0.000000 0.153612 0.177804 -0.164743 16.483251 128.435817 -0.000000 0.323994 0.468901 -0.415718
0.110000 37.932020 176.849437 -0.000000 0.153596 0.177808 -0.164747 16.474895 128.642988 -0.000000 0.324003 0.468919 -0.415734
0.115000 37.849836 176.994413 -0.000000 0.153592 0.177791 -0.164740 16.418418 128.787747 -0.000000 0.324005 0.468902 -0.415733
0.120000 37.804045 177.145701 -0.000000 0.153578 0.177802 -0.164748 16.346469 128.872379 -0.000000 0.324010 0.468898 -0.415734
0.125000 37.802567 177.330349 -0.000000 0.153572 0.177813 -0.164750 16.250942 128.894542 -0.000000 0.324012 0.468897 -0.415744
0.130000 37.879327 177.575473 -0.000000 0.153553 0.177808 -0.164753 16.127201 128.840835 -0.000000 0.324016 0.468895 -0.415744
0.135000 38.037956 177.885885 -0.000000 0.153552 0.177822 -0.164768 15.962632 128.707169 -0.000000 0.324021 0.468883 -0.415753
0.140000 38.259400 178.237006 -0.000000 0.153544 0.177826 -0.164755 15.754136 128.498439 -0.000000 0.324025 0.468883 -0.415747
0.145000 38.515526 178.588990 -0.000000 0.153530 0.177828 -0.164760 15.516337 128.227564 -0.000000 0.324021 0.468869 -0.415752
0.150000 38.758320 178.901364 -0.000000 0.153528 0.177838 -0.164767 15.271998 127.925553 -0.000000 0.324025 0.468873 -0.415759
0.155000 38.960737 179.126513 -0.000000 0.153518 0.177843 -0.164765 15.058487 127.616504 -0.000000 0.324036 0.468864 -0.415762
0.160000 39.075151 179.228923 -0.000000 0.153511 0.177842 -0.164767 14.872105 127.305093 -0.000000 0.324037 0.468855 -0.415771
0.165000 39.092695 179.192833 -0.000000 0.153498 0.177840 -0.164765 14.704483 126.979875 -0.000000 0.324036 0.468859 -0.415769
0.170000 39.024294 179.033427 -0.000000 0.153504 0.177849 -0.164757 14.539642 126.623940 -0.000000 0.324048 0.468851 -0.415779
0.175000 38.887620 178.789798 -0.000000 0.153494 0.177853 -0.164764 14.369042 126.242231 -0.000000 0.324050 0.468847 -0.415778
0.180000 38.709508 178.514520 -0.000000 0.153498 0.177851 -0.164749 14.196674 125.862712 -0.000000 0.324062 0.468852 -0.415783
0.185000 38.540008 178.260491 -0.000000 0.153505 0.177849 -0.164743 14.031494 125.498124 -0.000000 0.324080 0.468829 -0.415793
0.190000 38.385368 178.079261 -0.000000 0.153524 0.177852 -0.164734 13.844437 125.143397 -0.000000 0.324088 0.468819 -0.415782
0.195000 38.277097 177.993305 -0.000000 0.153520 0.177845 -0.164731 13.631020 124.784365 -0.000000 0.324092 0.468819 -0.415799
0.200000 38.210536 178.010019 -0.000000 0.153532 0.177840 -0.164724 13.380067 124.423942 -0.000000 0.324102 0.468814 -0.415796
0.205000 38.191455 178.123381 -0.000000 0.153543 0.177843 -0.164722 13.112882 124.098594 -0.000000 0.324118 0.468809 -0.415800
0.210000 38.206459 178.330549 -0.000000 0.153553 0.177834 -0.164721 12.845883 123.853954 -0.000000 0.324118 0.468805 -0.415806
0.215000 38.267281 178.622109 -0.000000 0.153580 0.177835 -0.164718 12.612049 123.708701 -0.000000 0.324131 0.468807 -0.415809
0.220000 38.370774 178.985852 -0.000000 0.153598 0.177809 -0.164715 12.431057 123.651795 -0.000000 0.324143 0.468805 -0.415810
0.225000 38.508736 179.397864 -0.000000 0.153631 0.177815 -0.164714 12.301306 123.639536 -0.000000 0.324146 0.468794 -0.415814
0.230000 38.645954 179.816332 -0.000000 0.153657 0.177802 -0.164722 12.198007 123.626790 -0.000000 0.324152 0.468807 -0.415806
0.235000 38.734947 180.179143 -0.000000 0.153693 0.177777 -0.164711 12.106196 123.596938 -0.000000 0.324157 0.468816 -0.415811
0.240000 38.734995 180.419320 -0.000000 0.153746 0.177768 -0.164718 12.024151 123.546371 -0.000000 0.324155 0.468807 -0.415808
0.245000 38.606444 180.488517 -0.000000 0.153800 0.177746 -0.164714 11.948666 123.476012 -0.000000 0.324150 0.468819 -0.415803
0.250000 38.359381 180.363402 -0.000000 0.153850 0.177736 -0.164697 11.899304 123.391679 -0.000000 0.324131 0.468811 -0.415811
0.255000 38.005302 180.061050 -0.000000 0.153898 0.177726 -0.164689 11.882293 123.313741 -0.000000 0.324123 0.468831 -0.415783
0.260000 37.568718 179.624545 -0.000000 0.153952 0.177693 -0.164673 11.914951 123.289501 -0.000000 0.324105 0.468851 -0.415789
0.265000 37.122922 179.099074 -0.000000 0.153991 0.177683 -0.164669 12.036091 123.352787 -0.000000 0.324094 0.468860 -0.415778
0.270000 36.671135 178.542196 -0.000000 0.154047 0.177654 -0.164656 12.202831 123.488867 -0.000000 0.324060 0.468874 -0.415771
0.275000 36.292209 177.985510 -0.000000 0.154086 0.177631 -0.164656 12.420684 123.660220 -0.000000 0.324046 0.468897 -0.415762
0.280000 35.985193 177.471868 -0.000000 0.154141 0.177612 -0.164647 12.659352 123.851725 -0.000000 0.324023 0.468917 -0.415751
0.285000 35.789547 177.031974 -0.000000 0.154183 0.177595 -0.164647 12.928115 124.059113 -0.000000 0.324009 0.468921 -0.415758
0.290000 35.695413 176.696785 -0.000000 0.154217 0.177583 -0.164636 13.211305 124.295472 -0.000000 0.323981 0.468936 -0.415744
0.295000 35.708114 176.484067 -0.000000 0.154264 0.177560 -0.164638 13.502959 124.567628 -0.000000 0.323969 0.468960 -0.415747
0.300000 35.836346 176.391157 -0.000000 0.154284 0.177539 -0.164645 13.795479 124.861659 -0.000000 0.323946 0.468969 -0.415730
0.305000 36.040342 176.390002 -0.000000 0.154315 0.177535 -0.164650 14.060463 125.157631 -0.000000 0.323928 0.468985 -0.415729
0.310000 36.267987 176.432618 -0.000000 0.154356 0.177514 -0.164645 14.272772 125.420271 -0.000000 0.323918 0.468992 -0.415722
0.315000 36.483341 176.480579 -0.000000 0.154367 0.177514 -0.164647 14.423243 125.608678 -0.000000 0.323896 0.469007 -0.415723
0.320000 36.635613 176.527021 -0.000000 0.154396 0.177489 -0.164661 14.497536 125.712770 -0.000000 0.323879 0.469010 -0.415719
0.325000 36.735278 176.564397 -0.000000 0.154421 0.177499 -0.164659 14.517615 125.729540 -0.000000 0.323870 0.469020 -0.415714
0.330000 36.761035 176.586182 -0.000000 0.154430 0.177494 -0.164668 14.475581 125.649346 -0.000000 0.323856 0.469029 -0.415719
0.335000 36.695579 176.584984 -0.000000 0.154451 0.177478 -0.164678 14.370035 125.472721 -0.000000 0.323849 0.469075 -0.415705
0.340000 36.592052 176.555042 -0.000000 0.154456 0.177462 -0.164679 14.243099 125.216704 -0.000000 0.323847 0.469076 -0.415712
0.345000 36.445936 176.519572 -0.000000 0.154476 0.177456 -0.164687 14.090822 124.928687 -0.000000 0.323834 0.469104 -0.415713
0.350000 36.334730 176.488737 -0.000000 0.154478 0.177457 -0.164690 13.970825 124.657811 -0.000000 0.323831 0.469097 -0.415712
0.355000 36.255470 176.489122 -0.000000 0.154495 0.177460 -0.164707 13.870359 124.421856 -0.000000 0.323823 0.469097 -0.415703
0.360000 36.247190 176.533452 -0.000000 0.154494 0.177451 -0.164697 13.792548 124.196520 -0.000000 0.323819 0.469107 -0.415712
0.365000 36.294834 176.622514 -0.000000 0.154512 0.177426 -0.164700 13.712814 123.959893 -0.000000 0.323807 0.469106 -0.415708
0.370000 36.409174 176.723955 -0.000000 0.154512 0.177442 -0.164711 13.644061 123.704502 -0.000000 0.323796 0.469117 -0.415716
0.375000 36.538222 176.809660 -0.000000 0.154513 0.177424 -0.164717 13.564880 123.449799 -0.000000 0.323786 0.469125 -0.415716
0.380000 36.664187 176.855557 -0.000000 0.154511 0.177418 -0.164712 13.468133 123.208998 -0.000000 0.323764 0.469143 -0.415703
0.385000 36.763823 176.853606 -0.000000 0.154526 0.177409 -0.164717 13.334761 122.972059 -0.000000 0.323742 0.469151 -0.415713
0.390000 36.841170 176.803405 -0.000000 0.154529 0.177416 -0.164719 13.183770 122.739005 -0.000000 0.323731 0.469165 -0.415715
0.395000 36.868877 176.725139 -0.000000 0.154543 0.177403 -0.164723 13.025223 122.533174 -0.000000 0.323712 0.469178 -0.415711
0.400000 36.878492 176.632047 -0.000000 0.154549 0.177406 -0.164730 12.901127 122.370935 -0.000000 0.323683 0.469175 -0.415722
0.405000 36.879750 176.533660 -0.000000 0.154554 0.177406 -0.164736 12.837542 122.275833 -0.000000 0.323666 0.469178 -0.415711
0.410000 36.859011 176.433085 -0.000000 0.154573 0.177391 -0.164732 12.841421 122.268133 -0.000000 0.323638 0.469208 -0.415704
0.415000 36.863148 176.317466 -0.000000 0.154572 0.177396 -0.164735 12.941512 122.336157 -0.000000 0.323612 0.469220 -0.415715
0.420000 36.864186 176.198492 -0.000000 0.154581 0.177387 -0.164754 13.089412 122.454234 -0.000000 0.323572 0.469229 -0.415711
0.425000 36.884769 176.085789 -0.000000 0.154587 0.177388 -0.164748 13.249134 122.574857 -0.000000 0.323548 0.469259 -0.415719
0.430000 36.901519 175.996177 -0.000000 0.154613 0.177368 -0.164750 13.354783 122.648683 -0.000000 0.323519 0.469265 -0.415710
